<svg width="120" height="22" viewBox="0 0 120 22" fill="none" xmlns="http://www.w3.org/2000/svg">
<path d="M5.23688 17.1552V2.48157H7.91028e-05V0.115152H13.0705V2.48157H7.83371V17.1552H5.23688ZM13.6273 20.7552V18.6767H15.1729C15.6081 18.6767 15.9305 18.6111 16.1401 18.4799C16.3497 18.3487 16.5105 18.1311 16.6225 17.8271L17.0209 16.7807H16.2289L11.6161 4.38715H14.3137L17.8225 14.4095L21.1633 4.38715H23.8609L18.7729 18.6335C18.5137 19.3759 18.1337 19.9151 17.6329 20.2511C17.1321 20.5872 16.4369 20.7552 15.5473 20.7552H13.6273ZM24.4225 20.7552V4.38715H26.8273L26.8849 7.11835L26.5921 6.97915C26.9121 6.03835 27.4401 5.32315 28.1761 4.83355C28.9121 4.34395 29.7665 4.09915 30.7393 4.09915C31.9809 4.09915 33.0049 4.40635 33.8113 5.02075C34.6177 5.63515 35.2193 6.44715 35.6161 7.45675C36.0129 8.46635 36.2113 9.57115 36.2113 10.7711C36.2113 11.968 36.0121 13.072 35.6137 14.0832C35.2153 15.0944 34.6121 15.9072 33.8041 16.5216C32.9961 17.136 31.9713 17.4432 30.7297 17.4432C30.0833 17.4432 29.4801 17.3304 28.9201 17.1048C28.3601 16.8792 27.8841 16.5632 27.4921 16.1568C27.1001 15.7504 26.8273 15.2703 26.6737 14.7167L26.9665 14.4288V20.7552H24.4225ZM30.2737 15.2399C31.2913 15.2399 32.0945 14.8455 32.6833 14.0567C33.2721 13.2679 33.5665 12.1727 33.5665 10.7711C33.5665 9.36956 33.2721 8.27436 32.6833 7.48556C32.0945 6.69676 31.2913 6.30237 30.2737 6.30237C29.5953 6.30237 29.0097 6.46877 28.5169 6.80156C28.0241 7.13436 27.6425 7.63356 27.3721 8.29916C27.1017 8.96476 26.9665 9.78875 26.9665 10.7711C26.9665 11.7535 27.0985 12.5775 27.3625 13.2431C27.6265 13.9087 28.0081 14.4079 28.5073 14.7407C29.0065 15.0735 29.5953 15.2399 30.2737 15.2399ZM37.5745 17.1552V4.38715H40.1185V17.1552H37.5745ZM37.5217 2.53436V-5.43594e-05H40.1713V2.53436H37.5217ZM42.6625 17.1552V4.38715H44.9761L45.0721 7.80476L44.7649 7.62236C44.9121 6.79996 45.1849 6.13035 45.5833 5.61355C45.9817 5.09675 46.4681 4.71515 47.0425 4.46875C47.6169 4.22235 48.2401 4.09915 48.9121 4.09915C49.8721 4.09915 50.6713 4.31035 51.3097 4.73275C51.9481 5.15515 52.4289 5.73035 52.7521 6.45835C53.0753 7.18635 53.2369 8.01435 53.2369 8.94235V17.1552H50.6929V9.72476C50.6929 8.97276 50.6121 8.33837 50.4505 7.82157C50.2889 7.30477 50.0265 6.91117 49.6633 6.64077C49.3001 6.37037 48.8209 6.23517 48.2257 6.23517C47.3265 6.23517 46.5985 6.53277 46.0417 7.12797C45.4849 7.72317 45.2065 8.58876 45.2065 9.72476V17.1552H42.6625ZM60.4993 21.0432C59.4817 21.0432 58.5897 20.8912 57.8233 20.5872C57.0569 20.2832 56.4273 19.8536 55.9345 19.2984C55.4417 18.7432 55.1041 18.1024 54.9217 17.376L57.5617 17.1936C57.7345 17.7279 58.0425 18.1495 58.4857 18.4583C58.9289 18.7671 59.6001 18.9215 60.4993 18.9215C61.5521 18.9215 62.3601 18.6991 62.9233 18.2543C63.4865 17.8095 63.7681 17.1295 63.7681 16.2143V14.376C63.4641 15.0224 62.9761 15.5392 62.3041 15.9264C61.6321 16.3136 60.8801 16.5072 60.0481 16.5072C58.9825 16.5072 58.0337 16.2448 57.2017 15.72C56.3697 15.1952 55.7201 14.4672 55.2529 13.536C54.7857 12.6048 54.5521 11.5296 54.5521 10.3104C54.5521 9.08795 54.7825 8.01275 55.2433 7.08475C55.7041 6.15675 56.3441 5.42715 57.1633 4.89595C57.9825 4.36475 58.9185 4.09915 59.9713 4.09915C60.8833 4.09915 61.6849 4.30715 62.3761 4.72315C63.0673 5.13915 63.5633 5.69595 63.8641 6.39355V4.38715H66.3217V16.1567C66.3217 17.1999 66.0841 18.0863 65.6089 18.8159C65.1337 19.5456 64.4617 20.0992 63.5929 20.4768C62.7241 20.8544 61.6929 21.0432 60.4993 21.0432ZM60.4561 14.3423C61.4577 14.3423 62.2585 13.9823 62.8585 13.2623C63.4585 12.5423 63.7649 11.5551 63.7777 10.3008C63.7905 9.46235 63.6617 8.74236 63.3913 8.14076C63.1209 7.53916 62.7337 7.07516 62.2297 6.74876C61.7257 6.42236 61.1345 6.25916 60.4561 6.25916C59.4225 6.25916 58.6209 6.62236 58.0513 7.34876C57.4817 8.07516 57.1969 9.05915 57.1969 10.3008C57.1969 11.5455 57.4897 12.5303 58.0753 13.2551C58.6609 13.9799 59.4545 14.3423 60.4561 14.3423ZM73.6177 17.1552V0.115152H79.0945C81.7665 0.115152 83.8225 0.855152 85.2625 2.33515C86.7025 3.81515 87.4225 5.92315 87.4225 8.65915C87.4225 11.3792 86.7145 13.4752 85.2985 14.9472C83.8825 16.4192 81.8625 17.1552 79.2385 17.1552H73.6177ZM76.2097 14.7887H79.0945C80.9793 14.7887 82.3897 14.2799 83.3257 13.2623C84.2617 12.2447 84.7297 10.7087 84.7297 8.65435C84.7297 6.57436 84.2617 5.02556 83.3257 4.00797C82.3897 2.99037 80.9793 2.48157 79.0945 2.48157H76.2097V14.7887ZM89.4817 17.1552V0.115152H92.7745L100.651 14.0159V0.115152H103.243V17.1552H99.8353L92.0737 3.58082V17.1552H89.4817ZM104.328 17.1552L110.472 0.115152H113.77L119.914 17.1552H117.149L115.594 12.7152H108.643L107.088 17.1552H104.328ZM109.45 10.3728H114.792L112.123 2.59199L109.45 10.3728Z" fill="#FFBA26"/>
</svg>
